# xmcd
# 
# Track frame offsets:
#     150
#     20955
#     40865
#     63965
#     86040
#     109202
#     130610
#     149485
#     167572
#     187572
#     210872
#     230460
#     247612
#     265882
#     285432
#     304417
# 
# Disc length: 4312
# 
# Revision: 6
# Processed by: cddbd v1.5.2PL0 Copyright (c) Steve Scherf et al.
# Submitted via: fre:ac v1.1beta1pre4
# 
DISCID=d310d610
DTITLE=Various Artist - Polling Rank of '98 Japan Animation:  Theme Song Vol. 1
DYEAR=1998
DGENRE=Anime
TTITLE0=Watashi no Aozora (Sakura Wars)
TTITLE1=O Matsuri Dance (Sakura Wars)
TTITLE2=Dance of Shinma (Vampire Princess Miyu TV)
TTITLE3=Miyu Yachiko (Vampire Princess Miyu TV ending)
TTITLE4=13 Gatsu no Shukumei (El Hazard opening)
TTITLE5=Kami-sama ga Kureta hi (El Hazard ending)
TTITLE6=Mezase Pokemon master (Pokemon)
TTITLE7=151 (Pokemon)
TTITLE8=Oyasumi Boku no Pikachu (Pokemon)
TTITLE9=Eien no Mirai (Rurouni Kenshin movie)
TTITLE10=Love Somebody (You're Under Arrest)
TTITLE11=Thank You, Love (You're Under Arrest)
TTITLE12=Nanka Shiawase (Flame of Recca opening)
TTITLE13=Love is Changing (Flame of Recca ending)
TTITLE14=That's Hyper Tension (Hyper Police opening)
TTITLE15=Hold Up! (Hyper Police ending)
EXTD=ID3G: 24
EXTT0=
EXTT1=
EXTT2=
EXTT3=
EXTT4=
EXTT5=
EXTT6=
EXTT7=
EXTT8=
EXTT9=
EXTT10=
EXTT11=
EXTT12=
EXTT13=
EXTT14=
EXTT15=
PLAYORDER=
